<mxfile host="app.diagrams.net" modified="2023-04-05T19:34:05.302Z" agent="Mozilla/5.0 (Windows NT 10.0; Win64; x64) AppleWebKit/537.36 (KHTML, like Gecko) Chrome/111.0.0.0 Safari/537.36" etag="MuOiUIl9eZ2mTUJ9QgDC" version="21.1.4" type="device">
  <diagram name="Страница 1" id="k_lHL5ACMLwSRcHz_N5j">
    <mxGraphModel dx="2069" dy="869" grid="1" gridSize="10" guides="1" tooltips="1" connect="1" arrows="1" fold="1" page="1" pageScale="1" pageWidth="827" pageHeight="1169" math="0" shadow="0">
      <root>
        <mxCell id="0" />
        <mxCell id="1" parent="0" />
        <mxCell id="Zjq-Siqm07z08XOI1qTq-8" value="" style="edgeStyle=orthogonalEdgeStyle;rounded=0;orthogonalLoop=1;jettySize=auto;html=1;" parent="1" source="Zjq-Siqm07z08XOI1qTq-3" target="Zjq-Siqm07z08XOI1qTq-6" edge="1">
          <mxGeometry relative="1" as="geometry" />
        </mxCell>
        <mxCell id="Zjq-Siqm07z08XOI1qTq-3" value="Start" style="rounded=1;whiteSpace=wrap;html=1;" parent="1" vertex="1">
          <mxGeometry x="-473" y="20" width="120" height="60" as="geometry" />
        </mxCell>
        <mxCell id="Zjq-Siqm07z08XOI1qTq-5" value="end" style="rounded=1;whiteSpace=wrap;html=1;" parent="1" vertex="1">
          <mxGeometry x="-473" y="700" width="120" height="60" as="geometry" />
        </mxCell>
        <mxCell id="Ei6WFAmPD-6HYTQAtbvF-2" value="" style="edgeStyle=orthogonalEdgeStyle;rounded=0;orthogonalLoop=1;jettySize=auto;html=1;" edge="1" parent="1" source="Zjq-Siqm07z08XOI1qTq-6" target="Ei6WFAmPD-6HYTQAtbvF-1">
          <mxGeometry relative="1" as="geometry" />
        </mxCell>
        <mxCell id="Zjq-Siqm07z08XOI1qTq-6" value="string[] a&lt;br&gt;int ArrayLength" style="shape=parallelogram;perimeter=parallelogramPerimeter;whiteSpace=wrap;html=1;fixedSize=1;" parent="1" vertex="1">
          <mxGeometry x="-473" y="140" width="120" height="60" as="geometry" />
        </mxCell>
        <mxCell id="Zjq-Siqm07z08XOI1qTq-11" value="" style="edgeStyle=orthogonalEdgeStyle;rounded=0;orthogonalLoop=1;jettySize=auto;html=1;" parent="1" source="Zjq-Siqm07z08XOI1qTq-7" target="Zjq-Siqm07z08XOI1qTq-10" edge="1">
          <mxGeometry relative="1" as="geometry" />
        </mxCell>
        <mxCell id="Zjq-Siqm07z08XOI1qTq-7" value="string[] newA = ArrayEdit(a, ArrayLength)" style="rounded=0;whiteSpace=wrap;html=1;" parent="1" vertex="1">
          <mxGeometry x="-494.5" y="410" width="163" height="70" as="geometry" />
        </mxCell>
        <mxCell id="Zjq-Siqm07z08XOI1qTq-12" value="" style="edgeStyle=orthogonalEdgeStyle;rounded=0;orthogonalLoop=1;jettySize=auto;html=1;" parent="1" source="Zjq-Siqm07z08XOI1qTq-10" target="Zjq-Siqm07z08XOI1qTq-5" edge="1">
          <mxGeometry relative="1" as="geometry" />
        </mxCell>
        <mxCell id="Zjq-Siqm07z08XOI1qTq-10" value="PrintStringArray(newA)" style="shape=document;whiteSpace=wrap;html=1;boundedLbl=1;" parent="1" vertex="1">
          <mxGeometry x="-479.5" y="550" width="133" height="90" as="geometry" />
        </mxCell>
        <mxCell id="Ei6WFAmPD-6HYTQAtbvF-3" value="" style="edgeStyle=orthogonalEdgeStyle;rounded=0;orthogonalLoop=1;jettySize=auto;html=1;" edge="1" parent="1" source="Ei6WFAmPD-6HYTQAtbvF-1" target="Zjq-Siqm07z08XOI1qTq-7">
          <mxGeometry relative="1" as="geometry" />
        </mxCell>
        <mxCell id="Ei6WFAmPD-6HYTQAtbvF-1" value="int ArrayLength = &lt;br&gt;SumQualifiedElements(a)" style="rounded=0;whiteSpace=wrap;html=1;" vertex="1" parent="1">
          <mxGeometry x="-520" y="260" width="213" height="100" as="geometry" />
        </mxCell>
      </root>
    </mxGraphModel>
  </diagram>
</mxfile>
